{
  "accessors": [
    {
      "bufferView": 2,
      "componentType": 5126,
      "count": 65532,
      "max": [
        5.2030549049377441,
        16.148805618286133,
        4.6949949264526367
      ],
      "min": [
        0,
        0,
        0
      ],
      "type": "VEC3"
    },
    {
      "bufferView": 2,
      "byteOffset": 786384,
      "componentType": 5126,
      "count": 65532,
      "max": [
        0.99999326467514038,
        0.99961888790130615,
        0.99997878074645996
      ],
      "min": [
        -0.99999576807022095,
        -0.99999821186065674,
        -0.99998199939727783
      ],
      "type": "VEC3"
    },
    {
      "bufferView": 3,
      "componentType": 5126,
      "count": 65532,
      "max": [
        0.99998605251312256,
        0.99998962879180908,
        0.99998563528060913,
        1
      ],
      "min": [
        -0.99993813037872314,
        -0.99992567300796509,
        -0.9999883770942688,
        -1
      ],
      "type": "VEC4"
    },
    {
      "bufferView": 1,
      "componentType": 5126,
      "count": 65532,
      "max": [
        0.9988899827003479,
        0.98723602294921875
      ],
      "min": [
        0.0079530002549290657,
        5.5000000429572538e-05
      ],
      "type": "VEC2"
    },
    {
      "bufferView": 0,
      "componentType": 5125,
      "count": 332757,
      "max": [
        65531
      ],
      "min": [
        0
      ],
      "type": "SCALAR"
    },
    {
      "bufferView": 2,
      "byteOffset": 1572768,
      "componentType": 5126,
      "count": 65532,
      "max": [
        4.8302969932556152,
        16.146522521972656,
        4.5324540138244629
      ],
      "min": [
        0.0074379444122314453,
        3.4894695281982422,
        0.033236026763916016
      ],
      "type": "VEC3"
    },
    {
      "bufferView": 2,
      "byteOffset": 2359152,
      "componentType": 5126,
      "count": 65532,
      "max": [
        0.99997854232788086,
        0.99909722805023193,
        0.99999111890792847
      ],
      "min": [
        -0.99997824430465698,
        -0.99999821186065674,
        -0.99997925758361816
      ],
      "type": "VEC3"
    },
    {
      "bufferView": 3,
      "byteOffset": 1048512,
      "componentType": 5126,
      "count": 65532,
      "max": [
        0.99992245435714722,
        0.99999779462814331,
        0.99992841482162476,
        1
      ],
      "min": [
        -0.99997854232788086,
        -0.99998354911804199,
        -0.99981170892715454,
        1
      ],
      "type": "VEC4"
    },
    {
      "bufferView": 1,
      "byteOffset": 524256,
      "componentType": 5126,
      "count": 65532,
      "max": [
        0.99996799230575562,
        0.98776900768280029
      ],
      "min": [
        4.400000034365803e-05,
        0.0066200001165270805
      ],
      "type": "VEC2"
    },
    {
      "bufferView": 0,
      "byteOffset": 1331028,
      "componentType": 5125,
      "count": 330072,
      "max": [
        65531
      ],
      "min": [
        0
      ],
      "type": "SCALAR"
    },
    {
      "bufferView": 2,
      "byteOffset": 3145536,
      "componentType": 5126,
      "count": 65532,
      "max": [
        4.9799222946166992,
        16.147542953491211,
        4.7285013198852539
      ],
      "min": [
        0.0035948753356933594,
        2.2169609069824219,
        0.25857019424438477
      ],
      "type": "VEC3"
    },
    {
      "bufferView": 2,
      "byteOffset": 3931920,
      "componentType": 5126,
      "count": 65532,
      "max": [
        0.99992620944976807,
        0.99944376945495605,
        0.99999165534973145
      ],
      "min": [
        -0.99999147653579712,
        -0.99997013807296753,
        -0.99997925758361816
      ],
      "type": "VEC3"
    },
    {
      "bufferView": 3,
      "byteOffset": 2097024,
      "componentType": 5126,
      "count": 65532,
      "max": [
        0.99998021125793457,
        0.99999779462814331,
        0.99994480609893799,
        1
      ],
      "min": [
        -0.99998384714126587,
        -0.99999845027923584,
        -0.99998629093170166,
        -1
      ],
      "type": "VEC4"
    },
    {
      "bufferView": 1,
      "byteOffset": 1048512,
      "componentType": 5126,
      "count": 65532,
      "max": [
        0.9924129843711853,
        0.99062597751617432
      ],
      "min": [
        4.1999999666586518e-05,
        0.0033760000951588154
      ],
      "type": "VEC2"
    },
    {
      "bufferView": 0,
      "byteOffset": 2651316,
      "componentType": 5125,
      "count": 306417,
      "max": [
        65531
      ],
      "min": [
        0
      ],
      "type": "SCALAR"
    },
    {
      "bufferView": 2,
      "byteOffset": 4718304,
      "componentType": 5126,
      "count": 31858,
      "max": [
        5.2131600379943848,
        6.49481201171875,
        4.6800823211669922
      ],
      "min": [
        0.86493301391601562,
        0.003353118896484375,
        0.916046142578125
      ],
      "type": "VEC3"
    },
    {
      "bufferView": 2,
      "byteOffset": 5100600,
      "componentType": 5126,
      "count": 31858,
      "max": [
        0.99999326467514038,
        0.99999850988388062,
        0.99994176626205444
      ],
      "min": [
        -0.99999576807022095,
        -0.99947011470794678,
        -0.99998199939727783
      ],
      "type": "VEC3"
    },
    {
      "bufferView": 3,
      "byteOffset": 3145536,
      "componentType": 5126,
      "count": 31858,
      "max": [
        0.99998605251312256,
        0.99999088048934937,
        0.99984025955200195,
        1
      ],
      "min": [
        -0.99899595975875854,
        -0.99977761507034302,
        -0.99949425458908081,
        1
      ],
      "type": "VEC4"
    },
    {
      "bufferView": 1,
      "byteOffset": 1572768,
      "componentType": 5126,
      "count": 31858,
      "max": [
        0.96318298578262329,
        0.96268600225448608
      ],
      "min": [
        4.9999998736893758e-05,
        0.00097900000400841236
      ],
      "type": "VEC2"
    },
    {
      "bufferView": 0,
      "byteOffset": 3876984,
      "componentType": 5125,
      "count": 157908,
      "max": [
        31857
      ],
      "min": [
        0
      ],
      "type": "SCALAR"
    }
  ],
  "asset": {
    "extras": {
      "author": "Geoffrey Marchal (https://sketchfab.com/geoffreymarchal)",
      "license": "CC-BY-4.0 (http://creativecommons.org/licenses/by/4.0/)",
      "source": "https://sketchfab.com/models/708a4166439c45d799f4eaa40d0db70e",
      "title": "Venus Medici"
    },
    "generator": "Sketchfab-3.19.5",
    "version": "2.0"
  },
  "bufferViews": [
    {
      "buffer": 0,
      "byteLength": 4508616,
      "byteOffset": 0,
      "name": "floatBufferViews",
      "target": 34963
    },
    {
      "buffer": 0,
      "byteLength": 1827632,
      "byteOffset": 4508616,
      "byteStride": 8,
      "name": "floatBufferViews",
      "target": 34962
    },
    {
      "buffer": 0,
      "byteLength": 5482896,
      "byteOffset": 6336248,
      "byteStride": 12,
      "name": "floatBufferViews",
      "target": 34962
    },
    {
      "buffer": 0,
      "byteLength": 3655264,
      "byteOffset": 11819144,
      "byteStride": 16,
      "name": "floatBufferViews",
      "target": 34962
    }
  ],
  "buffers": [
    {
      "byteLength": 15474408,
      "uri": "scene.bin"
    }
  ],
  "images": [
    {
      "uri": "textures/Material_0_baseColor.jpeg"
    },
    {
      "uri": "textures/Material_0_metallicRoughness.png"
    }
  ],
  "materials": [
    {
      "doubleSided": true,
      "emissiveFactor": [
        0,
        0,
        0
      ],
      "name": "Material_0",
      "pbrMetallicRoughness": {
        "baseColorFactor": [
          1,
          1,
          1,
          1
        ],
        "baseColorTexture": {
          "index": 0,
          "texCoord": 0
        },
        "metallicFactor": 0,
        "metallicRoughnessTexture": {
          "index": 1,
          "texCoord": 0
        },
        "roughnessFactor": 1
      }
    }
  ],
  "meshes": [
    {
      "primitives": [
        {
          "attributes": {
            "NORMAL": 1,
            "POSITION": 0,
            "TANGENT": 2,
            "TEXCOORD_0": 3
          },
          "indices": 4,
          "material": 0,
          "mode": 4
        }
      ]
    },
    {
      "primitives": [
        {
          "attributes": {
            "NORMAL": 6,
            "POSITION": 5,
            "TANGENT": 7,
            "TEXCOORD_0": 8
          },
          "indices": 9,
          "material": 0,
          "mode": 4
        }
      ]
    },
    {
      "primitives": [
        {
          "attributes": {
            "NORMAL": 11,
            "POSITION": 10,
            "TANGENT": 12,
            "TEXCOORD_0": 13
          },
          "indices": 14,
          "material": 0,
          "mode": 4
        }
      ]
    },
    {
      "primitives": [
        {
          "attributes": {
            "NORMAL": 16,
            "POSITION": 15,
            "TANGENT": 17,
            "TEXCOORD_0": 18
          },
          "indices": 19,
          "material": 0,
          "mode": 4
        }
      ]
    }
  ],
  "nodes": [
    {
      "children": [
        1
      ],
      "name": "RootNode (gltf orientation matrix)",
      "rotation": [
        -0.70710678118654746,
        -0,
        -0,
        0.70710678118654757
      ]
    },
    {
      "children": [
        2
      ],
      "matrix": [
        -1,
        0,
        0,
        0,
        0,
        0,
        -1,
        0,
        0,
        -1,
        0,
        0,
        1.1291608810424805,
        -12.554078102111816,
        -12.554078102111816,
        1
      ],
      "name": "RootNode (model correction matrix)"
    },
    {
      "children": [
        3,
        4,
        5,
        6
      ],
      "matrix": [
        1,
        0,
        0,
        0,
        0,
        1,
        0,
        0,
        0,
        0,
        1,
        0,
        -2.041996955871582,
        -20.262062072753906,
        -2.7306210994720459,
        1
      ],
      "name": "venusmed.obj.cleaner.gles"
    },
    {
      "mesh": 0,
      "name": ""
    },
    {
      "mesh": 1,
      "name": ""
    },
    {
      "mesh": 2,
      "name": ""
    },
    {
      "mesh": 3,
      "name": ""
    }
  ],
  "samplers": [
    {
      "magFilter": 9729,
      "minFilter": 9987,
      "wrapS": 10497,
      "wrapT": 10497
    }
  ],
  "scene": 0,
  "scenes": [
    {
      "name": "OSG_Scene",
      "nodes": [
        0
      ]
    }
  ],
  "textures": [
    {
      "sampler": 0,
      "source": 0
    },
    {
      "sampler": 0,
      "source": 1
    }
  ]
}

